<svg width="1024" height="1024" viewBox="0 0 1024 1024" fill="none" xmlns="http://www.w3.org/2000/svg"><rect width="1024" height="1024" rx="190" fill="#050607"/><rect x="74" y="74" width="876" height="876" rx="116" fill="#0B0D0F" stroke="#262A2F" stroke-width="4"/><rect x="108" y="112" width="808" height="118" rx="34" fill="#FFE100"/><rect x="186" y="309" width="652" height="84" rx="24" fill="#FFB000"/><rect x="186" y="421" width="502" height="84" rx="24" fill="#FFD45A"/><rect x="186" y="533" width="652" height="84" rx="24" fill="#FFB000"/><rect x="186" y="645" width="570" height="84" rx="24" fill="#FFD45A"/><rect x="186" y="757" width="652" height="84" rx="24" fill="#FFB000"/><rect x="186" y="309" width="90" height="532" rx="24" fill="#FFB000"/><rect x="170" y="148" width="118" height="26" rx="13" fill="#E32017"/><rect x="206" y="148" width="118" height="26" rx="13" fill="#0098D4"/><rect x="242" y="148" width="118" height="26" rx="13" fill="#00782A"/><rect x="278" y="148" width="118" height="26" rx="13" fill="#003688"/></svg>